<svg width="247" height="722" viewBox="0 0 247 722" fill="none" xmlns="http://www.w3.org/2000/svg">
<rect x="-476" y="173.765" width="484.758" height="484.758" transform="rotate(-44.3836 -476 173.765)" fill="#EB5250"/>
<rect x="-127.689" y="-163.436" width="49.6895" height="484.758" transform="rotate(-44.3836 -127.689 -163.436)" fill="#FFDE00"/>
<path d="M227.909 165.979L47.0795 346.272L47.6155 -14.8497L227.909 165.979Z" fill="#FFDE00"/>
<path d="M46.9699 81.4877L-1.82666 130.14L-1.68201 32.6911L46.9699 81.4877Z" fill="#FFDE00"/>
<path d="M46.9699 178.936L-1.82666 227.588L-1.68201 130.139L46.9699 178.936Z" fill="#FFDE00"/>
<rect x="0.351807" y="313.832" width="46.7011" height="170.926" fill="#EB5250"/>
<rect width="46.7011" height="19.6145" transform="matrix(1 0 0 -1 0.351807 523.987)" fill="#EB5250"/>
<rect width="46.7011" height="20.5485" transform="matrix(1 0 0 -1 0.351807 564.15)" fill="#EB5250"/>
<rect width="46.7011" height="19.6145" transform="matrix(1 0 0 -1 0.351807 603.379)" fill="#EB5250"/>
<rect width="46.7011" height="19.6145" transform="matrix(1 0 0 -1 0.351807 642.608)" fill="#EB5250"/>
<rect width="46.7011" height="20.5485" transform="matrix(1 0 0 -1 0.351807 682.771)" fill="#EB5250"/>
<rect width="46.7011" height="19.6145" transform="matrix(1 0 0 -1 0.351807 722)" fill="#EB5250"/>
<path d="M95.6221 130.388L46.8256 179.04L46.9702 81.591L95.6221 130.388Z" fill="#0564A5"/>
</svg>
